HIERARCHY
ROOT Hips
{
	OFFSET 0.000000 0.000000 0.000000 
	CHANNELS 6 Xposition Yposition Zposition Zrotation Yrotation Xrotation
	JOINT LeftUpLeg
	{
		OFFSET 1.363060 -1.794630 0.839290 
		CHANNELS 3 Zrotation Yrotation Xrotation
		JOINT LeftLeg
		{
			OFFSET 2.448110 -6.726130 0.000000 
			CHANNELS 3 Zrotation Yrotation Xrotation
			JOINT LeftFoot
			{
				OFFSET 2.562200 -7.039590 0.000000 
				CHANNELS 3 Zrotation Yrotation Xrotation
				JOINT LeftToeBase
				{
					OFFSET 0.157640 -0.433110 2.322550 
					CHANNELS 3 Zrotation Yrotation Xrotation
					End Site
					{
						OFFSET 0.000000 0.000000 0.000000 
					}
				}
			}
		}
	}
	JOINT RightUpLeg
	{
		OFFSET -1.305520 -1.794630 0.839290 
		CHANNELS 3 Zrotation Yrotation Xrotation
		JOINT RightLeg
		{
			OFFSET -2.542530 -6.985550 0.000000 
			CHANNELS 3 Zrotation Yrotation Xrotation
			JOINT RightFoot
			{
				OFFSET -2.568260 -7.056230 0.000000 
				CHANNELS 3 Zrotation Yrotation Xrotation
				JOINT RightToeBase
				{
					OFFSET -0.164730 -0.452590 2.363150 
					CHANNELS 3 Zrotation Yrotation Xrotation
					End Site
					{
						OFFSET 0.000000 0.000000 0.000000 
					}
				}
			}
		}
	}
	JOINT Spine
	{
		OFFSET 0.028270 2.035590 -0.193380 
		CHANNELS 3 Zrotation Yrotation Xrotation
		JOINT Spine1
		{
			OFFSET 0.056720 2.048850 -0.042750 
			CHANNELS 3 Zrotation Yrotation Xrotation
			JOINT Neck1
			{
				OFFSET -0.054170 1.746240 0.172020 
				CHANNELS 3 Zrotation Yrotation Xrotation
				JOINT Head
				{
					OFFSET 0.104070 1.761360 -0.123970 
					CHANNELS 3 Zrotation Yrotation Xrotation
					End Site
					{
						OFFSET 0.000000 0.000000 0.000000 
					}
				}
			}
			JOINT LeftArm
			{
				OFFSET 3.362410 1.200890 -0.311210 
				CHANNELS 3 Zrotation Yrotation Xrotation
				JOINT LeftForeArm
				{
					OFFSET 4.983000 -0.000000 -0.000000 
					CHANNELS 3 Zrotation Yrotation Xrotation
					JOINT LeftHand
					{
						OFFSET 3.483560 -0.000000 -0.000000 
						CHANNELS 3 Zrotation Yrotation Xrotation
						JOINT LeftHandIndex1
						{
							OFFSET 0.715260 -0.000000 -0.000000 
							CHANNELS 3 Zrotation Yrotation Xrotation
							End Site
							{
								OFFSET 0.000000 0.000000 0.000000 
							}
						}
					}
				}
			}
			JOINT RightArm
			{
				OFFSET -3.136600 1.374050 -0.404650 
				CHANNELS 3 Zrotation Yrotation Xrotation
				JOINT RightForeArm
				{
					OFFSET -5.241900 -0.000000 -0.000000 
					CHANNELS 3 Zrotation Yrotation Xrotation
					JOINT RightHand
					{
						OFFSET -3.444170 -0.000000 -0.000000 
						CHANNELS 3 Zrotation Yrotation Xrotation
						JOINT RightHandIndex1
						{
							OFFSET -0.622530 -0.000000 -0.000000 
							CHANNELS 3 Zrotation Yrotation Xrotation
							End Site
							{
								OFFSET 0.000000 0.000000 0.000000 
							}
						}
					}
				}
			}
		}
	}
}
MOTION
Frames: 12
Frame Time: 0.041667
10.490611 18.262321 -2.468301 -175.593362 -2.200564 -175.257640 -7.525259 -8.153897 -31.534229 -1.761969 10.730361 24.132960 0.504431 9.728709 30.796968 2.840100 -10.431600 -30.386100 20.429767 5.899169 -31.692805 0.731220 -12.170737 28.990407 2.372743 -15.872525 24.642516 -1.576000 7.920500 -22.473000 2.317043 2.118058 7.533045 -4.282385 0.606237 -14.998493 12.394493 -4.887969 4.473008 2.712000 -2.387800 2.822700 -53.264554 32.699579 -23.561650 85.543735 -52.672287 -56.101704 -1.241322 0.765252 -32.915341 -7.125000 0.000000 0.000000 52.831315 -30.042533 16.406684 -44.457222 44.098616 -22.220101 0.130140 1.703047 -23.189612 7.125000 0.000000 0.000000 
10.493260 17.875163 -2.612688 -175.563202 -2.546804 -175.715042 -8.949672 -7.513849 -32.949704 -0.799105 12.357063 28.851918 -0.038967 8.442911 25.397238 3.350000 -11.241100 -33.097500 21.842984 4.851768 -33.765984 -0.419229 -13.863947 34.193515 4.021057 -16.462472 15.232661 -0.198100 2.865900 -7.905700 2.264819 1.943099 7.305898 -4.294304 0.502606 -14.898565 12.219701 -4.741667 3.229666 2.583500 -2.400900 2.222900 -58.454217 34.100830 -27.293827 82.361377 -52.283990 -53.092715 -1.093641 0.773766 -33.238683 -7.125000 0.000000 0.000000 57.582701 -30.595820 14.169792 -40.826756 42.016716 -19.274519 0.324222 1.732983 -19.903040 7.125000 0.000000 0.000000 
10.493742 17.505104 -2.726367 -175.388444 -2.631737 -176.075411 -9.592909 -7.673140 -34.751912 0.289699 14.056961 33.762270 -0.129621 6.225868 18.047333 1.377300 -7.426600 -20.985400 22.941569 4.907497 -35.270758 -1.409669 -15.200137 38.494500 4.689716 -16.512601 8.727742 -0.001100 -0.217700 0.598200 2.318714 1.885926 7.385227 -4.427624 0.443401 -15.238211 12.289310 -4.640015 1.970833 2.641700 -2.439600 1.589900 -63.639521 35.092159 -31.173689 78.183389 -51.841174 -49.132850 -0.916762 0.837352 -33.353441 -7.125000 0.000000 0.000000 62.033523 -30.914767 12.011637 -37.369502 39.758551 -16.597365 0.520555 1.731396 -16.173001 7.125000 0.000000 0.000000 
10.494464 17.159973 -2.816322 -174.954133 -2.419675 -176.088131 -9.671374 -7.950140 -36.744106 1.565281 15.689629 38.281401 -0.379210 5.757418 14.120693 2.417000 -9.685400 -27.963700 23.977259 5.912200 -36.723128 -2.406218 -16.462053 42.396322 5.195200 -17.263587 4.224864 -0.039700 1.285700 -3.535300 2.400866 2.028168 7.334556 -4.690515 0.462391 -15.609541 12.370334 -4.599236 0.919038 2.703800 -2.494300 1.100900 -68.328767 35.568377 -34.256092 74.234735 -51.358325 -45.463080 -0.815526 0.828179 -34.942282 -7.125000 0.000000 0.000000 66.238513 -30.929854 9.886363 -34.166253 37.405327 -14.246284 0.710341 1.706889 -12.429489 7.125000 0.000000 0.000000 
10.502774 16.938757 -2.875691 -174.180969 -2.010953 -175.779357 -9.146086 -8.199082 -39.271125 2.950575 17.288840 42.847423 -0.067118 4.216775 11.125785 1.962900 -8.788400 -25.135700 25.144831 7.656537 -38.407222 -3.398486 -17.703765 46.175563 5.315355 -17.508285 0.852066 -0.066900 1.668800 -4.591100 2.592310 2.383856 7.234383 -5.067425 0.555637 -15.919430 12.336888 -4.510254 0.144935 2.689500 -2.508400 0.811200 -72.585219 35.891288 -36.497805 70.215722 -50.780644 -41.778737 -0.745070 0.840946 -36.208007 -7.125000 0.000000 0.000000 70.370113 -30.761290 7.680680 -31.433955 35.185659 -12.351113 0.874697 1.670420 -9.074674 7.125000 0.000000 0.000000 
10.529146 16.698635 -2.958662 -174.149465 -1.162080 -173.817515 -9.033139 -8.367736 -43.353877 4.377475 18.939414 47.334562 0.009811 3.357030 8.184181 1.954200 -8.770000 -25.078400 24.979508 10.831990 -42.125217 -4.535263 -19.322840 50.254312 5.064716 -17.080377 -1.824058 0.000000 -0.000200 0.000500 2.706833 2.890807 6.931447 -4.823988 0.888229 -16.006007 12.330035 -4.343195 -0.551716 2.680600 -2.481500 0.708200 -76.725224 35.406930 -38.543633 65.897363 -50.083633 -37.919252 -0.668542 0.877007 -37.210689 -7.125000 0.000000 0.000000 74.021955 -29.944867 5.703396 -29.074216 33.129516 -10.824661 1.012345 1.643418 -6.446153 7.125000 0.000000 0.000000 
10.546848 16.392761 -3.053314 -174.525453 -0.246637 -172.260407 -9.363101 -8.345130 -47.164366 5.881024 20.382724 51.868797 0.029252 2.769517 5.236273 2.220300 -9.310500 -26.771700 23.988354 13.894452 -45.745451 -5.917162 -20.935281 54.585746 4.991847 -17.250870 -3.947708 -0.000400 0.133500 -0.366700 2.606673 3.280418 6.731033 -4.579729 1.163379 -16.344156 12.191179 -4.047929 -1.660145 2.628800 -2.435400 0.368900 -79.382210 33.918443 -40.154896 59.362327 -48.716315 -32.277971 -0.548134 0.981984 -37.166411 -7.125000 0.000000 0.000000 77.208477 -28.755715 4.105836 -26.808032 31.048387 -9.486985 1.115056 1.656687 -4.522425 7.125000 0.000000 0.000000 
10.564189 16.121449 -3.157720 -174.876080 0.105811 -172.004766 -9.743027 -8.400956 -49.218890 7.256765 21.374805 55.872710 0.256430 1.878171 2.468156 2.334300 -9.530300 -27.468600 23.253389 15.661884 -47.795562 -7.334624 -22.107285 58.782653 4.898796 -17.342506 -6.430906 -0.005200 0.465400 -1.278700 2.498978 3.375829 6.783636 -4.480400 1.215256 -17.138422 12.051444 -3.694296 -3.082888 2.585100 -2.395700 -0.160600 -81.319817 32.382728 -40.786970 53.190960 -46.842798 -27.172366 -0.451825 1.086164 -36.030826 -7.125000 0.000000 0.000000 80.028556 -27.199068 2.571338 -24.861655 29.126305 -8.368283 1.238471 1.615248 -1.739024 7.125000 0.000000 0.000000 
10.576231 15.898547 -3.250807 -174.989295 0.179381 -172.246255 -9.856149 -8.564560 -50.304076 8.434128 22.064168 59.174398 0.631050 0.814288 -0.086902 2.276800 -9.420300 -27.119200 23.101205 16.574492 -48.943448 -8.542445 -22.877736 62.314355 4.739396 -17.299791 -8.847014 -0.000200 0.090700 -0.249300 2.432563 3.403417 6.960217 -4.586910 1.168516 -17.936693 12.130831 -3.370003 -4.266756 2.665900 -2.349200 -0.566100 -82.708603 31.095164 -40.013125 47.946465 -44.689699 -23.016755 -0.364466 1.190290 -33.977183 -7.125000 0.000000 0.000000 82.703529 -25.712525 1.584901 -23.365423 27.583580 -7.584434 1.332635 1.598516 0.710751 7.125000 0.000000 0.000000 
10.592970 15.722128 -3.320050 -174.927611 0.717519 -172.212397 -9.975018 -7.868573 -51.379616 9.395691 22.475669 61.731448 1.056777 -0.300922 -1.963894 2.189100 -9.249400 -26.578700 23.124529 17.811445 -49.983475 -9.469561 -23.478774 65.005717 4.617132 -17.396771 -10.631329 -0.000000 -0.020900 0.057400 2.435792 3.688739 7.188339 -4.674981 1.264533 -18.419634 12.279880 -3.132748 -5.339801 2.817000 -2.332400 -0.928900 -83.986652 29.656625 -38.631382 43.445642 -42.384343 -19.606895 -0.280110 1.293228 -30.963867 -7.125000 0.000000 0.000000 84.951453 -24.178470 1.168219 -22.684053 26.836743 -7.214811 1.396202 1.546749 4.129626 7.125000 0.000000 0.000000 
10.624400 15.597370 -3.388691 -174.901175 0.426784 -172.279175 -9.899258 -7.840626 -52.002765 10.112243 22.795471 63.620100 1.429838 -1.267239 -3.331654 2.145400 -9.162500 -26.305100 23.238862 18.297243 -50.546644 -10.178243 -23.838566 67.043125 4.571972 -17.692530 -12.265523 -0.000800 0.186500 -0.512500 2.563326 3.664039 7.324992 -4.636336 1.222525 -18.877611 12.453840 -2.824573 -6.698907 3.034100 -2.298800 -1.500500 -84.734226 27.943450 -36.875649 39.069262 -39.674956 -16.438653 -0.201100 1.413348 -27.283449 -7.125000 0.000000 0.000000 86.600702 -22.440095 1.555642 -21.839730 25.810995 -6.683324 1.567666 1.327519 7.621136 7.125000 0.000000 0.000000 
10.643427 15.478995 -3.438666 -174.908712 0.309813 -171.821142 -9.808676 -7.856464 -53.120209 10.718004 23.116378 65.212155 1.684966 -1.950346 -4.404605 2.144700 -9.161200 -26.300800 23.014273 18.913458 -51.694912 -10.755067 -24.219641 68.665448 4.509443 -17.880840 -13.408762 -0.002500 0.322000 -0.884600 2.597397 3.622084 7.321199 -4.666656 1.179836 -19.250175 12.030915 -2.776594 -7.157192 2.812500 -2.348700 -1.630500 -84.454504 25.948458 -34.841528 34.371701 -36.194786 -13.263724 -0.090780 1.588496 -23.350669 -7.125000 0.000000 0.000000 87.668732 -20.636088 2.611356 -21.456576 25.324369 -6.456740 1.592320 1.261153 12.198768 7.125000 0.000000 0.000000 
